<?xml version="1.0" encoding="UTF-8"?>
<svg width="175px" height="623px" viewBox="0 0 175 623" version="1.1" xmlns="http://www.w3.org/2000/svg" xmlns:xlink="http://www.w3.org/1999/xlink">
    <!-- Generator: Sketch 63.1 (92452) - https://sketch.com -->
    <title>feathrd</title>
    <desc>Created with Sketch.</desc>
    <g id="Page-1" stroke="none" stroke-width="1" fill="none" fill-rule="evenodd">
        <g id="feathrd" fill-rule="nonzero">
            <g id="Group" transform="translate(3.997861, 3.997861)">
                <polygon id="Path" fill="#FFCF5C" points="83.3448051 441.131942 83.3448051 415.495848 83.5944277 415.495848 166.552318 356.910933 166.552318 452.474978 83.5944277 511.059893 83.3448051 510.893695"></polygon>
                <polygon id="Path" fill="#FF775C" points="83.3448051 395.842894 83.3448051 370.206801 83.5944277 370.206801 166.552318 311.621886 166.552318 356.910933 83.5944277 415.495848 83.3448051 415.495848"></polygon>
                <polygon id="Path" fill="#B79CD0" points="166.552318 240.572096 166.552318 311.621886 83.5944277 370.206801 83.3448051 370.206801 83.3448051 298.990812 83.5944277 299.157011"></polygon>
                <polygon id="Path" fill="#FF775C" points="166.552318 195.698544 166.552318 240.572096 83.5944277 299.157011 83.3448051 298.990812 83.3448051 257.607426 83.3448051 254.15881 83.5944277 254.325009"></polygon>
                <polygon id="Path" fill="#73D5A3" points="166.552318 153.733464 166.552318 195.698544 83.5944277 254.325009 83.3448051 254.15881 83.3448051 212.15218 83.5944277 212.318378 114.464415 190.504846 143.046195 170.353298"></polygon>
                <polygon id="Path" fill="#B79CD0" points="166.552318 147.791873 166.552318 153.733464 143.046195 170.353298 138.88582 131.296688"></polygon>
                <polygon id="Path" fill="#73D5A3" points="166.552318 111.768383 166.552318 147.791873 138.88582 131.296688 138.844216 131.255138"></polygon>
                <path d="M166.552318,83.0991696 L166.552318,111.768383 L138.844216,131.255138 L110.428851,151.282038 L83.3448051,170.353298 L0.137292396,111.768383 L0.137292396,83.0991696 C0.137292396,37.1868784 37.3726543,0 83.3448051,0 C106.310079,0 127.111957,9.307107 142.172517,24.3480567 C157.233076,39.3890064 166.552318,60.1637988 166.552318,83.0991696 Z" id="Path" fill="#FF775C"></path>
                <polygon id="Path" fill="#FFCF5C" points="138.88582 131.296688 143.046195 170.353298 110.512058 151.365137 110.428851 151.282038 138.844216 131.255138"></polygon>
                <polygon id="Path" fill="#FF775C" points="143.046195 170.353298 114.464415 190.504846 110.512058 151.365137"></polygon>
                <polygon id="Path" fill="#B79CD0" points="110.512058 151.365137 114.464415 190.504846 83.3448051 170.353298 110.428851 151.282038"></polygon>
                <polygon id="Path" fill="#73D5A3" points="114.464415 190.504846 83.5944277 212.318378 83.3448051 212.15218 83.3448051 170.353298"></polygon>
                <polygon id="Path" fill="#B79CD0" points="83.3448051 441.131942 83.3448051 510.893695 0.137292396 452.474978 0.137292396 382.671676"></polygon>
                <polygon id="Path" fill="#FF775C" points="83.3448051 415.495848 83.3448051 441.131942 0.137292396 382.671676 0.137292396 337.424178 83.3448051 395.842894"></polygon>
                <polygon id="Path" fill="#73D5A3" points="83.3448051 370.206801 83.3448051 395.842894 0.137292396 337.424178 0.137292396 240.572096 23.6850185 257.108831 23.6434147 257.607426 24.0594523 257.358128 52.2667991 277.17728 52.2251954 277.758974 52.6828367 277.468127 83.3448051 298.990812"></polygon>
                <polygon id="Path" fill="#FFCF5C" points="83.3448051 212.15218 83.3448051 254.15881 57.8417025 236.250939 29.4263369 216.265589 0.137292396 195.698544 0.137292396 153.733464"></polygon>
                <polygon id="Path" fill="#B79CD0" points="83.3448051 170.353298 83.3448051 212.15218 0.137292396 153.733464 0.137292396 111.768383"></polygon>
                <g transform="translate(0.000000, 195.283049)" id="Path">
                    <polygon fill="#73D5A3" points="57.8417025 40.9678906 24.0594523 62.0750797 29.4263369 20.9825403"></polygon>
                    <polygon fill="#FFCF5C" points="29.4263369 20.9825403 24.0594523 62.0750797 23.6850185 61.8257822 0.137292396 45.2890474 0.137292396 39.7629527"></polygon>
                    <polygon fill="#FFCF5C" points="83.3448051 58.8757617 83.3448051 62.3243772 52.2667991 81.8942316 57.8417025 40.9678906"></polygon>
                    <polygon fill="#B79CD0" points="83.3448051 62.3243772 83.3448051 103.707764 52.6828367 82.1850787 52.2667991 81.8942316"></polygon>
                    <polygon fill="#FF775C" points="57.8417025 40.9678906 52.2667991 81.8942316 24.0594523 62.0750797"></polygon>
                    <polygon fill="#B79CD0" points="29.4263369 20.9825403 0.137292396 39.7629527 0.137292396 0.415495848"></polygon>
                </g>
            </g>
            <path d="M148.998279,25.55546 C132.505262,9.07503333 110.588005,0 87.286631,0 C39.1584453,0 0,39.1244 0,87.22 L0,456.451333 C0,457.801167 0.656727986,459.072087 1.76651515,459.84876 L83.1301248,516.994473 L83.1301248,618.846667 C83.1301248,621.14346 84.9880831,623 87.286631,623 C89.585179,623 91.4431373,621.14346 91.4431373,618.846667 L91.4431373,517.3392 L172.81506,459.840453 C173.920691,459.059627 174.573262,457.797013 174.573262,456.451333 L174.573262,87.22 C174.573262,63.93226 165.487139,42.0317333 148.998279,25.55546 Z M166.26025,313.50606 L91.4431373,366.369687 L91.4431373,305.515047 L166.26025,252.65142 L166.26025,313.50606 Z M119.387329,163.1637 L139.247116,174.76396 L121.802259,187.091053 L119.387329,163.1637 Z M147.788736,143.2277 L166.26025,154.246493 L166.26025,155.67524 L150.311735,166.943233 L147.788736,143.2277 Z M35.5630674,261.614313 L56.4952328,248.531313 L53.0411761,273.891567 L35.5630674,261.614313 Z M8.31301248,241.37512 L28.1437037,228.65346 L24.8268118,254.07186 L8.31716898,242.4716 L8.31716898,241.37512 L8.31301248,241.37512 Z M54.3089105,240.100047 L33.318554,253.220427 L36.652072,227.685733 L54.3089105,240.100047 Z M65.0077576,247.621733 L82.3861102,259.836687 L61.5578574,272.957067 L65.0077576,247.621733 Z M83.1301248,269.18584 L83.1301248,295.02788 L63.7358667,281.404947 L83.1301248,269.18584 Z M91.4431373,182.082133 L110.978717,194.73734 L91.4431373,208.538867 L91.4431373,182.082133 Z M83.1301248,250.213413 L35.6711365,216.85384 C35.658667,216.845533 35.6545105,216.833073 35.642041,216.82892 C35.6378845,216.824767 35.6295715,216.824767 35.625415,216.820613 L8.31301248,197.619753 L8.31301248,165.821833 L83.1301248,218.369807 L83.1301248,250.213413 Z M25.9656945,220.18066 L8.31301248,231.5068 L8.31301248,207.774653 L25.9656945,220.18066 Z M8.31301248,252.6265 L53.9556075,284.681927 C53.968077,284.690233 53.97639,284.702693 53.993016,284.711 C54.0013291,284.715153 54.0096421,284.715153 54.0179551,284.72346 L83.1342813,305.174473 L83.1342813,391.84208 L8.31716898,339.2858 L8.31716898,252.6265 L8.31301248,252.6265 Z M166.26025,242.479907 L91.4431373,295.343533 L91.4431373,260.70058 L166.26025,207.799573 L166.26025,242.479907 Z M166.26025,197.62806 L91.4431373,250.529067 L91.4431373,218.714533 L149.131287,177.957873 C149.147913,177.945413 149.168696,177.94126 149.189478,177.932953 C149.22273,177.912187 149.243513,177.87896 149.276765,177.858193 L166.26025,165.85506 L166.26025,197.62806 Z M166.26025,144.57338 L150.361613,135.087167 L166.26025,123.885627 L166.26025,144.57338 Z M139.38428,142.820673 L141.923906,166.706493 L121.997615,155.068853 L139.38428,142.820673 Z M110.995343,162.818973 L113.377021,186.38914 L94.7059947,174.294633 L110.995343,162.818973 Z M83.1301248,208.227367 L8.31301248,155.671087 L8.31301248,123.88978 L83.1301248,176.59558 L83.1301248,208.227367 Z M8.31301248,349.444853 L83.1301248,401.99698 L83.1301248,437.113413 L8.31301248,384.519753 L8.31301248,349.444853 Z M91.4431373,400.80082 C91.5262674,400.368873 91.4971718,399.92862 91.4431373,399.488367 L91.4431373,376.537047 L166.26025,323.67342 L166.26025,358.769087 L91.4431373,411.632713 L91.4431373,400.80082 Z M87.286631,8.30666667 C108.368431,8.30666667 128.199122,16.5178067 143.120979,31.4282733 C158.042837,46.33874 166.26025,66.15014 166.26025,87.22 L166.26025,113.72242 L87.286631,169.35632 L8.31301248,113.72242 L8.31301248,87.22 C8.31301248,43.7055267 43.7389152,8.30666667 87.286631,8.30666667 Z M8.31301248,454.2916 L8.31301248,394.674653 L83.1301248,447.268313 L83.1301248,506.852033 L8.31301248,454.2916 Z M91.4431373,507.167687 L91.4431373,446.076307 C91.5262674,445.64436 91.4971718,445.204107 91.4431373,444.763853 L91.4431373,421.812533 L166.26025,368.948907 L166.26025,454.30406 L91.4431373,507.167687 Z" id="Shape" fill="#6C485E"></path>
            <path d="M87.0379512,0 C39.0468828,0 0,39.1088296 0,87.2057122 L0,456.446892 C0,457.800915 0.654856966,459.071869 1.76148234,459.844409 L82.8974315,516.9958 L82.8974315,618.846556 C82.8974315,621.14341 84.7500964,623 87.0420958,623 L87.286631,622.954312 L87.286631,0 C87.2037377,0 87.1208444,0 87.0379512,0" id="Path" fill="#7C4A3C" opacity="0.149"></path>
        </g>
    </g>
</svg>